<svg width="94" height="68" viewBox="0 0 94 68" fill="none" xmlns="http://www.w3.org/2000/svg">
<path d="M94 65.1667C94 65.934 93.7093 66.5981 93.1279 67.1589C92.5465 67.7196 91.8581 68 91.0625 68C90.2669 68 89.5785 67.7196 88.9971 67.1589C88.4157 66.5981 88.125 65.934 88.125 65.1667V27.8906L55.7207 43.5625C53.2728 44.7431 50.3659 45.3333 47 45.3333C43.6341 45.3333 40.7272 44.7431 38.2793 43.5625L3.58008 26.8281C1.19336 25.6476 0 24.2457 0 22.6224C0 20.9991 1.19336 19.6267 3.58008 18.5052L38.2793 1.77083C40.7272 0.590278 43.6341 0 47 0C50.3659 0 53.2728 0.590278 55.7207 1.77083L90.4199 18.5052C92.5006 19.5087 93.6634 20.7483 93.9082 22.224C93.9694 22.283 94 22.401 94 22.5781V65.1667ZM58.6582 49.2292L76.375 40.6406V53.125C76.375 55.6632 73.514 57.8325 67.792 59.6328C62.07 61.4332 55.1393 62.3333 47 62.3333C38.8607 62.3333 31.93 61.4332 26.208 59.6328C20.486 57.8325 17.625 55.6632 17.625 53.125V40.6406L35.3418 49.2292C37.7897 50.4097 41.6758 51 47 51C52.3242 51 56.2103 50.4097 58.6582 49.2292Z" fill="#F7931E"/>
</svg>
