<svg width="60" height="60" viewBox="0 0 60 60" fill="none" xmlns="http://www.w3.org/2000/svg">
<g clip-path="url(#clip0)">
<path d="M55.3116 29.8989C58.2015 24.5092 58.7916 19.1149 56.3828 14.9433C53.9736 10.7712 49.0416 8.59911 42.9538 8.39495C42.5116 7.66756 42.0328 6.9626 41.5197 6.28328C42.0493 5.59526 42.3381 4.7516 42.3418 3.88322C42.345 1.67725 40.5597 -0.113977 38.3538 -0.117182C37.2725 -0.119013 36.2361 0.318152 35.4827 1.09406C33.9116 0.31037 32.1822 -0.103907 30.4266 -0.116724C25.578 -0.116724 21.1748 3.13111 17.942 8.39083C11.8121 8.57485 6.83072 10.762 4.41692 14.9428C2.00313 19.124 2.60189 24.5069 5.49084 29.8971C2.99099 34.51 2.20684 39.132 3.55495 43.023C1.97338 44.5579 1.93584 47.0847 3.47072 48.6663C4.84585 50.0826 7.04907 50.2813 8.65491 49.1342C11.5269 50.7089 14.7528 51.5255 18.0281 51.5077C21.2498 56.6877 25.6178 59.8829 30.428 59.8829C35.2378 59.8829 39.5838 56.7028 42.8028 51.5438C44.2141 51.5081 45.6194 51.3484 47.0028 51.0668C48.219 52.9107 50.7001 53.4197 52.5445 52.2035C53.6609 51.4669 54.3357 50.2204 54.3416 48.8828C54.3375 48.475 54.2702 48.0703 54.1421 47.683C55.0306 46.8929 55.7877 45.9664 56.386 44.9387C58.7485 40.845 58.3585 35.5212 55.3116 29.8989ZM54.6506 15.943C56.5778 19.281 56.2505 23.5561 54.1398 27.9561C52.2455 25.0786 49.9704 22.4712 47.3768 20.2039C46.713 16.7977 45.5979 13.4949 44.0607 10.383C48.8929 10.7689 52.7326 12.621 54.6506 15.943ZM41.7417 49.5457C38.9498 49.4821 36.1762 49.0746 33.4836 48.3326C35.5033 47.5063 37.4657 46.5455 39.3576 45.4578C41.2583 44.3606 43.0843 43.1374 44.8229 41.7976C44.1198 44.4979 43.0852 47.1003 41.7417 49.5457ZM38.3579 43.7261C35.8264 45.1878 33.165 46.4123 30.4079 47.3827C27.6444 46.4146 24.9774 45.1901 22.4419 43.7261C19.9209 42.275 17.5383 40.5959 15.3241 38.7099C14.2488 32.9348 14.2373 27.0122 15.2897 21.233C17.509 19.3213 19.904 17.6226 22.4419 16.16C24.976 14.6915 27.6402 13.461 30.401 12.4832C35.9455 14.4512 41.0802 17.4221 45.5498 21.2481C46.0781 24.0958 46.3431 26.9866 46.3417 29.8829C46.3472 32.8263 46.0794 35.7642 45.5416 38.6578C43.3091 40.5653 40.9049 42.2622 38.3597 43.7261H38.3579ZM16.0419 41.8461C17.7608 43.1672 19.5644 44.3734 21.4416 45.4578C23.329 46.5441 25.2846 47.5077 27.296 48.3418C24.6249 49.0746 21.8747 49.4775 19.1057 49.542C17.7722 47.1122 16.7431 44.5272 16.0419 41.8461ZM12.9616 36.5292C10.968 34.574 9.22345 32.3804 7.76776 29.9982C9.2143 27.6032 10.9501 25.3959 12.9359 23.4252C12.3633 27.7735 12.3724 32.179 12.9616 36.525V36.5292ZM19.0617 10.3121C21.8591 10.3748 24.6382 10.784 27.3349 11.5311C25.3102 12.3665 23.3432 13.3351 21.4467 14.431C19.5561 15.5223 17.7392 16.7354 16.0066 18.0629C16.702 15.364 17.7273 12.7606 19.0599 10.3121H19.0617ZM44.8417 18.1041C43.098 16.7597 41.2679 15.532 39.3627 14.4278C37.4657 13.3319 35.4978 12.3633 33.4726 11.5279C36.178 10.7781 38.9658 10.3684 41.7728 10.3079C43.1127 12.7707 44.1436 15.3891 44.8417 18.1041ZM47.922 23.4609C49.894 25.4133 51.6175 27.6023 53.0517 29.9781C51.6088 32.3475 49.8798 34.5306 47.9036 36.4779C48.1966 34.2916 48.3426 32.0884 48.3417 29.8829C48.3403 27.7355 48.1989 25.5904 47.9187 23.4609H47.922ZM38.3419 1.88279C39.4464 1.88279 40.3418 2.77818 40.3418 3.88276C40.3418 4.98735 39.4464 5.88274 38.3419 5.88274C37.2373 5.88274 36.3419 4.98735 36.3419 3.88276C36.3419 2.77818 37.2373 1.88279 38.3419 1.88279ZM30.4266 1.88279C31.8375 1.89561 33.2282 2.22291 34.4966 2.83998C34.3987 3.17918 34.3465 3.53029 34.3419 3.88322C34.3346 6.08507 36.1139 7.87584 38.3158 7.88317C38.8816 7.885 39.4414 7.76644 39.9578 7.53527C40.1734 7.82045 40.3835 8.11296 40.5886 8.41326C37.1196 8.60918 33.6933 9.27431 30.4028 10.3913C27.1152 9.27431 23.6916 8.60872 20.2249 8.41326C22.9898 4.34007 26.5476 1.88279 30.4266 1.88279ZM6.15368 15.943C8.0827 12.6009 11.9586 10.7492 16.832 10.378C15.2856 13.4633 14.1614 16.7427 13.4898 20.1279C10.8682 22.4094 8.56839 25.0365 6.65356 27.9369C4.55471 23.5442 4.22878 19.276 6.15368 15.943ZM6.34182 47.8831C5.23724 47.8831 4.34185 46.9877 4.34185 45.8831C4.34185 44.7785 5.23724 43.8831 6.34182 43.8831C7.44641 43.8831 8.3418 44.7785 8.3418 45.8831C8.3418 46.9877 7.44641 47.8831 6.34182 47.8831ZM9.95587 47.57C10.2072 47.0431 10.339 46.4668 10.3418 45.8831C10.3418 43.6739 8.55099 41.8827 6.34182 41.8827C5.99942 41.8873 5.65884 41.9363 5.32879 42.0287C4.43478 39.0647 4.99188 35.5578 6.71399 31.9648C8.61966 34.8588 10.9067 37.4827 13.5136 39.7651C14.1948 43.1406 15.3277 46.4095 16.8819 49.483C14.4617 49.3562 12.0982 48.7034 9.95587 47.57ZM30.4266 57.8829C26.5819 57.8829 23.0507 55.471 20.2968 51.4628C23.7227 51.2513 27.1051 50.5871 30.3566 49.488C33.6383 50.6219 37.0601 51.3008 40.5258 51.5058C37.7765 55.4888 34.2577 57.8829 30.4266 57.8829ZM50.3417 50.8828C49.2371 50.8828 48.3417 49.9874 48.3417 48.8828C48.3417 47.7783 49.2371 46.8829 50.3417 46.8829C51.4463 46.8829 52.3417 47.7783 52.3417 48.8828C52.3417 49.9874 51.4463 50.8828 50.3417 50.8828ZM54.6506 43.9431C54.2107 44.6842 53.6687 45.3594 53.0407 45.9499C51.4293 44.4512 48.9075 44.5423 47.4088 46.1536C46.7194 46.8952 46.3381 47.8707 46.3417 48.8828C46.3417 48.9767 46.3628 49.065 46.3697 49.157C45.5796 49.3067 44.7808 49.4116 43.9788 49.4697C45.5375 46.3821 46.6718 43.0976 47.3507 39.7056C49.9416 37.4305 52.2144 34.8171 54.1086 31.9359C56.3027 36.5072 56.5087 40.7241 54.6506 43.9431Z" fill="url(#paint0_linear)"/>
<path d="M30.3419 19.883C24.819 19.883 20.3416 24.3599 20.3416 29.8829C20.3416 35.4058 24.819 39.8827 30.3419 39.8827C35.8644 39.8827 40.3418 35.4058 40.3418 29.8829C40.3358 24.3627 35.8621 19.8889 30.3419 19.883ZM30.3419 37.8827C25.9236 37.8827 22.3416 34.3012 22.3416 29.8829C22.3416 25.4645 25.9236 21.883 30.3419 21.883C34.7598 21.883 38.3418 25.4645 38.3418 29.8829C38.3368 34.2994 34.758 37.8782 30.3419 37.8827Z" fill="url(#paint1_linear)"/>
</g>
<defs>
<linearGradient id="paint0_linear" x1="11.1381" y1="12.7537" x2="51.227" y2="52.8416" gradientUnits="userSpaceOnUse">
<stop stop-color="#07407B"/>
<stop offset="1" stop-color="#F7931E"/>
</linearGradient>
<linearGradient id="paint1_linear" x1="12.1732" y1="11.7176" x2="52.262" y2="51.8065" gradientUnits="userSpaceOnUse">
<stop stop-color="#07407B"/>
<stop offset="0.692708" stop-color="#F7931E"/>
</linearGradient>
<clipPath id="clip0">
<rect width="60" height="60" fill="white"/>
</clipPath>
</defs>
</svg>
