<svg width="60" height="60" viewBox="0 0 60 60" fill="none" xmlns="http://www.w3.org/2000/svg">
<g clip-path="url(#clip0)">
<path d="M58.9998 26.0003H43.9998V22.0003H47C47.552 21.9999 47.9993 21.5517 47.9988 20.9992C47.9984 20.6609 47.8267 20.3455 47.5429 20.1615L30.9998 9.45669V7.78128L42.2429 4.97061C42.7785 4.83603 43.1039 4.29312 42.9698 3.75754C42.8801 3.39957 42.6009 3.12033 42.2429 3.03061L30.2431 0.0304258C29.7075 -0.103699 29.1641 0.221771 29.03 0.757354C29.0099 0.837005 28.9998 0.918487 28.9998 1.00043V9.45624L12.4571 20.1615C11.9939 20.4618 11.8616 21.0811 12.1623 21.5444C12.3463 21.8282 12.6617 21.9999 13 22.0003H16.0002V26.0003H1.00021C0.447693 26.0003 0 26.448 0 27.0005V36.0001C0 36.5526 0.447693 37.0003 1.00021 37.0003V59C1.00021 59.5525 1.44791 60.0002 1.99997 60.0002H58C58.5521 60.0002 58.9998 59.5525 58.9998 59V37.0003C59.5523 37.0003 60 36.5526 60 36.0001V27.0005C60 26.448 59.5523 26.0003 58.9998 26.0003ZM30.9998 2.28125L37.8767 4.00061L30.9998 5.71951V2.28125ZM58 28.0002V35.0004H43.9998V28.0002H58ZM1.99997 28.0002H15.9998V35.0004H1.99997V28.0002ZM3.00018 37.0003H16.0002V58.0002H3.00018V37.0003ZM17.9997 36.0006V21.0006C17.9997 20.4481 17.552 20.0004 17 20.0004H16.3857L30 11.1912L43.6139 20.0004H42.9996C42.4475 20.0004 41.9998 20.4481 41.9998 21.0006V58.0002H37.9999V41.0003C37.9999 40.4482 37.5517 40.0001 36.9997 40.0001H22.9999C22.4474 40.0001 21.9997 40.4482 21.9997 41.0003V58.0002H17.9997V36.0006ZM35.9999 44.0005H24.0001V42.0005H35.9999V44.0005ZM24.0001 46.0004H28.9998V58.0002H24.0001V46.0004ZM30.9998 46.0004H35.9999V58.0002H30.9998V46.0004ZM56.9998 58.0002H43.9998V37.0003H56.9998V58.0002Z" fill="url(#paint0_linear)"/>
<path d="M30 38.0003C34.9704 38.0003 39.0001 33.9706 39.0001 29.0002C39.0001 24.0294 34.9704 20.0001 30 20.0001C25.0291 20.0001 20.9999 24.0294 20.9999 29.0002C21.0058 33.9683 25.0319 37.9939 30 38.0003ZM30 22.0001C33.8658 22.0001 36.9996 25.1339 36.9996 29.0002C36.9996 32.866 33.8658 35.9999 30 35.9999C26.1337 35.9999 22.9998 32.866 22.9998 29.0002C23.0044 25.1358 26.1355 22.0047 30 22.0001Z" fill="url(#paint1_linear)"/>
<path d="M26.9998 32.0005C27.1971 32 27.3898 31.9419 27.5542 31.832L30.5539 29.8325C30.8322 29.6471 30.9998 29.3349 30.9998 29.0003V24.0001C30.9998 23.4481 30.5521 23.0004 30 23.0004C29.4475 23.0004 28.9998 23.4481 28.9998 24.0001V28.4651L26.445 30.1653C25.984 30.4692 25.8563 31.089 26.1603 31.5505C26.3461 31.8325 26.662 32.0018 26.9998 32.0005Z" fill="url(#paint2_linear)"/>
<path d="M13 39.0001H5.99988C5.44781 39.0001 5.00012 39.4478 5.00012 40.0003V47C5.00012 47.5525 5.44781 48.0002 5.99988 48.0002H13C13.5521 48.0002 14.0002 47.5525 14.0002 47V40.0003C13.9998 39.4478 13.5521 39.0001 13 39.0001ZM11.9998 46.0002H7.00009V41.0001H11.9998V46.0002Z" fill="url(#paint3_linear)"/>
<path d="M47 48.0002H53.9996C54.5522 48.0002 54.9998 47.5525 54.9998 47V39.9999C54.9998 39.4478 54.5522 39.0001 53.9996 39.0001H47C46.4474 39.0001 45.9998 39.4478 45.9998 39.9999V47C45.9998 47.5525 46.4474 48.0002 47 48.0002ZM47.9997 41.0001H52.9999V46.0002H47.9997V41.0001Z" fill="url(#paint4_linear)"/>
</g>
<defs>
<linearGradient id="paint0_linear" x1="1.74997" y1="11.2504" x2="50.2528" y2="59.7533" gradientUnits="userSpaceOnUse">
<stop stop-color="#07407B"/>
<stop offset="1" stop-color="#F7931E"/>
</linearGradient>
<linearGradient id="paint1_linear" x1="7.00157" y1="5.99858" x2="55.5044" y2="54.5015" gradientUnits="userSpaceOnUse">
<stop stop-color="#07407B"/>
<stop offset="0.765625" stop-color="#F7931E"/>
</linearGradient>
<linearGradient id="paint2_linear" x1="6.99878" y1="6.00146" x2="55.5016" y2="54.5043" gradientUnits="userSpaceOnUse">
<stop stop-color="#07407B"/>
<stop offset="0.630208" stop-color="#F7931E"/>
</linearGradient>
<linearGradient id="paint3_linear" x1="-10.5" y1="23.5002" x2="38.0029" y2="72.0031" gradientUnits="userSpaceOnUse">
<stop stop-color="#07407B"/>
<stop offset="0.671875" stop-color="#F7931E"/>
</linearGradient>
<linearGradient id="paint4_linear" x1="9.99998" y1="3.00026" x2="58.5029" y2="51.5031" gradientUnits="userSpaceOnUse">
<stop stop-color="#07407B"/>
<stop offset="1" stop-color="#F7931E"/>
</linearGradient>
<clipPath id="clip0">
<rect width="60" height="60" fill="white"/>
</clipPath>
</defs>
</svg>
