<svg width="60" height="60" viewBox="0 0 60 60" fill="none" xmlns="http://www.w3.org/2000/svg">
<path d="M59.4079 20.7037L30.4089 7.70455C30.1489 7.58782 29.8514 7.58782 29.5909 7.70455L0.592424 20.7037C0.0879672 20.9294 -0.137711 21.5203 0.0875095 22.0248C0.18776 22.2496 0.367662 22.4295 0.592424 22.5297L10.0009 26.7467V44.616C10.0009 44.9108 10.1313 45.1909 10.357 45.3809C21.6986 54.966 38.3017 54.966 49.6433 45.3809C49.869 45.1909 49.9994 44.9108 49.9994 44.616V26.7467L53.9994 24.9536V42.3161L52.4993 44.5601C52.1715 45.0527 51.9976 45.6317 51.9994 46.2236V47.3827C51.9994 49.0393 53.3425 50.3824 54.9991 50.3824C56.6558 50.3824 57.9989 49.0393 57.9989 47.3827V46.2209C58.0007 45.629 57.8268 45.0499 57.499 44.5569L55.9989 42.3161V24.0577L59.4079 22.5297C59.9119 22.3045 60.138 21.7131 59.9128 21.2091C59.8125 20.9843 59.6326 20.8044 59.4079 20.7037ZM55.9989 47.3799C55.9989 47.932 55.5512 48.3797 54.9991 48.3797C54.4466 48.3797 53.9989 47.932 53.9989 47.3799V46.2209C53.9989 46.0236 54.0575 45.8309 54.1669 45.667L54.9991 44.4159L55.8309 45.6638C55.9408 45.8277 55.9994 46.0208 55.9989 46.2181V47.3799ZM47.9995 44.1458C37.5276 52.7088 22.4727 52.7088 12.0008 44.1458V27.6466L29.5909 35.5321C29.8514 35.6488 30.1489 35.6488 30.4089 35.5321L47.9995 27.6434V44.1458ZM54.4311 22.5686L30.0803 20.6167C29.5277 20.5728 29.0443 20.9843 29.0004 21.5368C28.956 22.0889 29.368 22.5728 29.92 22.6167L50.6344 24.2738L30.0001 33.5165L3.44613 21.6169L30.0001 9.71734L56.5542 21.6169L54.4311 22.5686Z" fill="url(#paint0_linear)"/>
<defs>
<linearGradient id="paint0_linear" x1="18.2508" y1="16.3668" x2="56.9392" y2="55.0552" gradientUnits="userSpaceOnUse">
<stop stop-color="#07407B"/>
<stop offset="0.661458" stop-color="#F7931E"/>
</linearGradient>
</defs>
</svg>
