<svg width="60" height="60" viewBox="0 0 60 60" fill="none" xmlns="http://www.w3.org/2000/svg">
<path d="M50.0107 15.9939C50.0075 13.2908 48.4488 10.8308 46.0057 9.67402C45.8281 5.8137 42.5551 2.82862 38.6952 3.00578C37.8127 3.04652 36.9457 3.25389 36.1405 3.61689C34.2778 0.236766 30.0279 -0.993245 26.6478 0.868938C25.4906 1.5066 24.538 2.45967 23.9003 3.61689C20.3774 2.02845 16.2341 3.59629 14.6457 7.11924C14.2827 7.92445 14.0753 8.79146 14.035 9.67402C10.5451 11.3206 9.05137 15.4844 10.6979 18.974C11.1324 19.8945 11.7627 20.7089 12.5446 21.3607C11.0889 24.9363 12.8078 29.0155 16.3834 30.4711C17.2225 30.8126 18.1197 30.988 19.0256 30.987C20.0523 30.9266 21.0526 30.6369 21.953 30.1393C25.5235 34.5947 32.0302 35.312 36.4851 31.7414C37.0766 31.2681 37.6135 30.7307 38.0873 30.1393C38.9877 30.6369 39.9884 30.9266 41.0152 30.987C44.876 30.9902 48.0084 27.8633 48.0121 24.0025C48.013 23.0966 47.8377 22.1994 47.4962 21.3607C49.0929 20.036 50.0148 18.0685 50.0107 15.9939ZM36.0173 25.0169C34.3616 25.0169 33.019 23.6743 33.019 22.0181C33.019 20.3623 34.3616 19.0197 36.0173 19.0197C37.6735 19.0197 39.0161 20.3623 39.0161 22.0181C39.0161 23.6743 37.6735 25.0169 36.0173 25.0169ZM39.0161 18.0461C36.8948 16.4068 33.8512 16.7703 32.1753 18.8627C30.8753 17.9769 29.1655 17.9769 27.8655 18.8627C26.1896 16.7703 23.1459 16.4068 21.0246 18.0461V15.9211C22.4176 15.6286 23.6417 14.8037 24.4359 13.6222C26.3471 14.4023 28.5388 13.9775 30.0202 12.5396C31.5024 13.9756 33.6928 14.4 35.6044 13.6222C36.3986 14.8037 37.6227 15.6286 39.0157 15.9211V18.0461H39.0161ZM21.0246 22.0181C21.0246 20.3619 22.3673 19.0193 24.023 19.0193C25.6792 19.0193 27.0218 20.3619 27.0218 22.0181C27.0218 23.6743 25.6792 25.0164 24.023 25.0164C22.3673 25.0164 21.0246 23.6743 21.0246 22.0181ZM30.0202 32.0134C26.5288 31.9223 23.4096 29.8069 22.0331 26.5971C24.5197 27.7255 27.4507 26.625 28.5796 24.1384C29.0758 23.0448 29.1573 21.8084 28.8089 20.6599C29.4992 20.0442 30.5415 20.0442 31.2319 20.6599C31.0977 21.1003 31.0268 21.5576 31.0199 22.0181C31.0144 24.7729 33.2433 27.01 35.9976 27.0155C36.6893 27.0169 37.3737 26.874 38.0072 26.5971C36.6312 29.8069 33.512 31.9223 30.0202 32.0134ZM45.699 20.204C45.2518 20.4896 45.1062 21.0751 45.3671 21.5374C46.7217 23.9421 45.8702 26.9899 43.4656 28.3444C42.7176 28.7655 41.8735 28.9875 41.0152 28.9875C40.4036 28.9372 39.8081 28.7673 39.2619 28.4881C40.4146 26.5271 41.0202 24.2927 41.0152 22.0181V15.0212C41.0152 14.4696 40.5675 14.0219 40.0154 14.0219C38.643 13.977 37.4236 13.1356 36.8939 11.869C36.7708 11.6053 36.5392 11.4089 36.259 11.3302C35.9793 11.2496 35.6781 11.2968 35.4364 11.4593C33.9313 12.4536 31.9052 12.0397 30.9105 10.5346C30.889 10.5021 30.8679 10.4687 30.8478 10.4357C30.5031 9.97844 29.8535 9.88734 29.3962 10.232C29.3193 10.2902 29.2507 10.3584 29.1925 10.4357C28.2514 11.9757 26.2395 12.4613 24.6991 11.5197C24.6671 11.5 24.6355 11.4799 24.6039 11.4593C24.3622 11.2968 24.061 11.2496 23.7813 11.3302C23.5016 11.4089 23.2695 11.6053 23.1464 11.869C22.6172 13.1356 21.3973 13.977 20.0249 14.0219C19.4728 14.0219 19.0251 14.4696 19.0251 15.0212V22.0181C19.0196 24.2941 19.6248 26.5298 20.7784 28.4918C20.2322 28.7715 19.6367 28.9413 19.0251 28.9917C16.2653 28.9903 14.0286 26.7518 14.03 23.9915C14.0305 23.1332 14.252 22.2891 14.6732 21.5411C14.9341 21.0792 14.7885 20.4937 14.3417 20.2076C12.0158 18.7304 11.3287 15.6474 12.8059 13.3219C13.4088 12.373 14.3143 11.6557 15.3758 11.2863C15.7961 11.1384 16.068 10.731 16.0428 10.2865L16.0355 10.1867C16.0355 10.1268 16.0268 10.0654 16.0268 10.0045C16.0222 7.24421 18.2561 5.00346 21.0164 4.99934C22.0097 4.99751 22.9816 5.29231 23.8069 5.84575C24.2656 6.1529 24.8863 6.02977 25.1935 5.57109C25.2402 5.50105 25.2782 5.42552 25.3061 5.34587C26.2148 2.74394 29.0607 1.37065 31.6626 2.27885C33.0991 2.78056 34.2284 3.9094 34.7296 5.34587C34.9123 5.8668 35.4826 6.141 36.0036 5.95835C36.0832 5.93043 36.1588 5.89244 36.2288 5.84575C38.5199 4.30674 41.6249 4.91648 43.1639 7.20759C43.7178 8.03202 44.0135 9.0034 44.0131 9.99675C44.0131 10.0576 44.008 10.1185 44.0044 10.1785L43.997 10.2787C43.9719 10.7232 44.2438 11.1306 44.664 11.278C47.2655 12.1844 48.6401 15.028 47.7342 17.63C47.3644 18.6915 46.647 19.5974 45.6981 20.1998V20.204H45.699Z" fill="url(#paint0_linear)"/>
<path d="M8.03055 60H52.0097C52.5618 60 53.0095 59.5523 53.0095 59.0003V48.1307C53.0095 40.3455 45.368 34.0123 35.9756 34.0123C35.8195 34.0123 35.6657 34.049 35.5266 34.119L30.0201 36.8907L24.5142 34.119C24.3745 34.049 24.2212 34.0123 24.0651 34.0123C14.6727 34.0123 7.03125 40.3455 7.03125 48.1307V59.0003C7.03125 59.5523 7.47849 60 8.03055 60ZM25.0227 51.238L23.3295 48.2767L25.0227 47.006V51.238ZM22.5238 40.9259L25.0227 38.4275V42.925L22.5238 40.9259ZM27.0218 58.001V41.0092L29.4205 42.8083C29.7762 43.0747 30.2646 43.0747 30.6198 42.8083L33.019 41.0092V58.001H27.0218ZM36.7113 48.2767L35.018 51.238V47.006L36.7113 48.2767ZM35.018 38.4243L37.5165 40.9232L35.018 42.9222V38.4243ZM36.2105 36.0114C44.3925 36.1112 51.0104 41.5087 51.0104 48.1307V58.001H45.0133V48.0057C45.0133 47.4536 44.5656 47.006 44.0135 47.006C43.4615 47.006 43.0142 47.4536 43.0142 48.0057V58.001H35.018V55.2681L38.8843 48.5015C39.1365 48.0629 39.0216 47.5049 38.616 47.2019L35.6506 44.9781L39.641 41.7856C40.0717 41.4405 40.1413 40.8115 39.7966 40.3807C39.7737 40.3519 39.749 40.3244 39.7229 40.2983L35.6937 36.2691L36.2105 36.0114ZM30.4701 38.9031L33.019 37.6195V38.5103L30.0201 40.7593L27.0218 38.5103V37.6195L29.5706 38.9031C29.8535 39.0454 30.1872 39.0454 30.4701 38.9031ZM9.0303 48.1307C9.0303 41.5087 15.6482 36.1112 23.8303 36.0114L24.3471 36.2723L20.3178 40.3015C19.9274 40.6916 19.9274 41.3246 20.3178 41.7151C20.3435 41.7412 20.3709 41.7655 20.4002 41.7888L24.3901 44.9813L21.4247 47.206C21.0191 47.509 20.9042 48.067 21.1569 48.5056L25.0227 55.2681V58.001H17.0265V48.0057C17.0265 47.4536 16.5793 47.006 16.0272 47.006C15.4752 47.006 15.0275 47.4536 15.0275 48.0057V58.001H9.0303V48.1307Z" fill="url(#paint1_linear)"/>
<defs>
<linearGradient id="paint0_linear" x1="15.8729" y1="3.84776" x2="62.6138" y2="50.5886" gradientUnits="userSpaceOnUse">
<stop stop-color="#07407B"/>
<stop offset="0.421875" stop-color="#F7931E"/>
</linearGradient>
<linearGradient id="paint1_linear" x1="-0.746083" y1="20.4657" x2="45.9947" y2="67.2065" gradientUnits="userSpaceOnUse">
<stop stop-color="#07407B"/>
<stop offset="0.796875" stop-color="#F7931E"/>
</linearGradient>
</defs>
</svg>
